<svg width="98" height="98" viewBox="0 0 98 98" fill="none" xmlns="http://www.w3.org/2000/svg">
<circle cx="48.5" cy="48.5" r="45.5" fill="#131A2B"/>
<path d="M22.55 36.602L45.13 77.248C45.784 78.426 45.36 79.91 44.183 80.564C43.808 80.772 43.401 80.872 43 80.872C42.144 80.872 41.313 80.419 40.867 79.617L18.287 38.971C17.633 37.793 18.057 36.308 19.233 35.655C20.413 35.002 21.896 35.425 22.55 36.602ZM28.41 27.085L56.28 77.248C56.933 78.426 56.51 79.91 55.332 80.564C54.957 80.772 54.551 80.872 54.15 80.872C53.293 80.872 52.462 80.419 52.016 79.617L24.147 29.454C23.493 28.277 23.917 26.792 25.094 26.138C26.274 25.486 27.756 25.908 28.41 27.085ZM74.851 36.142C75.506 34.966 76.989 34.542 78.167 35.195C79.344 35.849 79.768 37.334 79.114 38.511L61.835 69.615C61.389 70.417 60.558 70.869 59.701 70.869C59.301 70.869 58.894 70.77 58.519 70.562C57.342 69.908 56.918 68.423 57.572 67.246L74.852 36.142H74.851ZM72.052 26.138C73.229 26.792 73.653 28.277 72.999 29.454L56.037 59.984C55.592 60.786 54.76 61.239 53.904 61.239C53.503 61.239 53.097 61.139 52.721 60.932C51.544 60.278 51.121 58.793 51.774 57.616L68.736 27.086C69.39 25.909 70.874 25.486 72.052 26.138Z" fill="white"/>
<path d="M48.7 0C75.554 0 97.401 21.847 97.401 48.701C97.401 75.554 75.554 97.401 48.701 97.401C21.847 97.402 0 75.555 0 48.702C0 21.847 21.847 0 48.7 0ZM48.7 4.638C24.404 4.638 4.638 24.404 4.638 48.701C4.638 72.997 24.404 92.763 48.701 92.763C72.997 92.763 92.763 72.997 92.763 48.701C92.763 24.404 72.997 4.638 48.701 4.638H48.7Z" fill="url(#paint0_linear_201_11)"/>
<defs>
<linearGradient id="paint0_linear_201_11" x1="2.40483" y1="48.7005" x2="95.2747" y2="48.7005" gradientUnits="userSpaceOnUse">
<stop stop-color="#29ABE2"/>
<stop offset="0.23" stop-color="#527FC2"/>
<stop offset="0.49357" stop-color="#7758A6"/>
<stop offset="0.76562" stop-color="#B32F99"/>
<stop offset="1" stop-color="#EB088C"/>
</linearGradient>
</defs>
</svg>
